<svg id="icon-search-40px" xmlns="http://www.w3.org/2000/svg" width="40" height="40" viewBox="0 0 40 40">
  <rect id="Rectangle_510" data-name="Rectangle 510" width="40" height="40" fill="#fff" opacity="0"/>
  <circle id="Ellipse_2" data-name="Ellipse 2" cx="11" cy="11" r="11" transform="translate(6.776 7.117)" fill="none"/>
  <path id="Path_124" data-name="Path 124" d="M-232.777,32.883" transform="translate(266)" fill="#fff"/>
  <path id="Path_124-2" data-name="Path 124" d="M-238.91,27.008" transform="translate(266)" fill="#fff"/>
  <g id="Group_62" data-name="Group 62">
    <path id="Path_128" data-name="Path 128" d="M-248.224,29.117a11.012,11.012,0,0,1-11-11,11.013,11.013,0,0,1,11-11,11.012,11.012,0,0,1,11,11A11.012,11.012,0,0,1-248.224,29.117Zm0-20a9.01,9.01,0,0,0-9,9,9.01,9.01,0,0,0,9,9,9.01,9.01,0,0,0,9-9A9.01,9.01,0,0,0-248.224,9.117Z" transform="translate(266)"/>
    <rect id="Rectangle_512" data-name="Rectangle 512" width="2.001" height="8.493" transform="translate(26.398 27.73) rotate(-46.235)"/>
  </g>
</svg>
