<svg id="logo-varta-secondary" xmlns="http://www.w3.org/2000/svg" width="313.292" height="80" viewBox="0 0 313.292 80">
  <path id="Path_63" data-name="Path 63" d="M77.574,15l9.865,24.854L97.4,15h2.924L88.74,43.806H86.234L74.65,15Z" transform="translate(25.323 -10.871)" fill="#050000"/>
  <path id="Path_64" data-name="Path 64" d="M92.43,43.806,103.371,15h2.506L116.8,43.774h-2.828l-2.635-7H97.908l-2.6,7Zm6.314-9.254H110.5L104.592,18.92Z" transform="translate(36.111 -10.871)" fill="#050000"/>
  <path id="Path_65" data-name="Path 65" d="M132.1,43.806l-7.085-12.29a18.235,18.235,0,0,1-2.137,0h-7.262v12.21h-2.7V15h9.961c7.23,0,11.407,2.844,11.407,8.306,0,4.081-2.362,6.716-6.587,7.76l7.423,12.708Zm-9.222-14.459c5.607,0,8.724-1.719,8.724-6.009s-3.117-6.057-8.724-6.057h-7.262V29.347Z" transform="translate(48.543 -10.871)" fill="#050000"/>
  <path id="Path_66" data-name="Path 66" d="M153.41,15v2.249H143.257V43.806h-2.683V17.281H130.42V15Z" transform="translate(59.162 -10.871)" fill="#050000"/>
  <path id="Path_67" data-name="Path 67" d="M146.36,43.806,157.3,15h2.506l10.925,28.774H167.9l-2.635-7H151.839l-2.6,7Zm6.314-9.254h11.76l-5.8-15.632Z" transform="translate(68.833 -10.871)" fill="#050000"/>
  <path id="Path_68" data-name="Path 68" d="M83.123,48.8l2.619-8.033H87.7L83.99,51.084H82.255L78.56,40.77h1.96Z" transform="translate(27.694 4.766)" fill="#050000"/>
  <path id="Path_69" data-name="Path 69" d="M84.88,41.512a.938.938,0,0,1,.241-.659,1.092,1.092,0,0,1,1.446,0,.952.952,0,0,1,0,1.3,1.142,1.142,0,0,1-1.446,0A.913.913,0,0,1,84.88,41.512Zm1.815,9.64H84.977V43.5h1.7Z" transform="translate(31.529 4.65)" fill="#050000"/>
  <path id="Path_70" data-name="Path 70" d="M90.445,48.859a1.6,1.6,0,0,0,1.076-.37,1.314,1.314,0,0,0,.45-.932h1.607a2.563,2.563,0,0,1-.45,1.333,2.854,2.854,0,0,1-1.141.98,3.307,3.307,0,0,1-1.607.37A3.212,3.212,0,0,1,87.842,49.2a4.063,4.063,0,0,1-.835-2.876v-.177a4.066,4.066,0,0,1,.9-2.747,3.209,3.209,0,0,1,2.555-1.044,3.1,3.1,0,0,1,2.217.787,2.874,2.874,0,0,1,.916,2.1H91.987a1.613,1.613,0,0,0-.45-1.092,1.513,1.513,0,0,0-1.076-.418,1.478,1.478,0,0,0-1.285.594,3.105,3.105,0,0,0-.466,1.848v.273a3.213,3.213,0,0,0,.434,1.767A1.606,1.606,0,0,0,90.445,48.859Z" transform="translate(32.809 5.722)" fill="#050000"/>
  <path id="Path_71" data-name="Path 71" d="M94.378,41.24V43.1h1.35v1.269h-1.35v4.274a.886.886,0,0,0,.177.643.785.785,0,0,0,.611.193,3.872,3.872,0,0,0,.611,0V50.8a4.213,4.213,0,0,1-1.141.177c-1.317,0-1.976-.739-1.976-2.2V44.437H91.39V43.1h1.269V41.24Z" transform="translate(35.479 5.051)" fill="#050000"/>
  <path id="Path_72" data-name="Path 72" d="M94.58,46.215a4.708,4.708,0,0,1,.434-2.04,3.376,3.376,0,0,1,1.253-1.382,3.576,3.576,0,0,1,1.864-.482,3.388,3.388,0,0,1,2.522,1,3.884,3.884,0,0,1,1.028,2.651v.4a4.566,4.566,0,0,1-.434,2.024,3.213,3.213,0,0,1-1.173,1.462,3.553,3.553,0,0,1-1.864.5,3.357,3.357,0,0,1-2.6-1.092,4.146,4.146,0,0,1-.964-2.876Zm1.719.145a3.082,3.082,0,0,0,.562,1.88,1.7,1.7,0,0,0,2.715,0,3.472,3.472,0,0,0,.5-2.024,3.042,3.042,0,0,0-.514-1.848,1.683,1.683,0,0,0-2.683-.016A3.334,3.334,0,0,0,96.3,46.359Z" transform="translate(37.415 5.699)" fill="#050000"/>
  <path id="Path_73" data-name="Path 73" d="M103.936,44.029a3.465,3.465,0,0,0-.707,0,1.607,1.607,0,0,0-1.607.9v5.254h-1.7V42.455h1.607v.852a1.915,1.915,0,0,1,1.719-1,1.616,1.616,0,0,1,.611.1Z" transform="translate(40.655 5.7)" fill="#050000"/>
  <path id="Path_74" data-name="Path 74" d="M103.1,41.512a.938.938,0,0,1,.241-.659,1.092,1.092,0,0,1,1.446,0,.952.952,0,0,1,0,1.3,1.142,1.142,0,0,1-1.446,0A.913.913,0,0,1,103.1,41.512Zm1.815,9.64H103.2V43.5h1.719Z" transform="translate(42.584 4.65)" fill="#050000"/>
  <path id="Path_75" data-name="Path 75" d="M110.071,50.107a2.254,2.254,0,0,1-.193-.723,2.668,2.668,0,0,1-2.024.868,2.733,2.733,0,0,1-1.88-.659,2.15,2.15,0,0,1-.723-1.607,2.184,2.184,0,0,1,.9-1.88,4.458,4.458,0,0,1,2.6-.659h1.06v-.5a1.288,1.288,0,0,0-.337-.948,1.269,1.269,0,0,0-1.012-.37,1.478,1.478,0,0,0-.964.305.9.9,0,0,0-.37.739h-1.719a1.944,1.944,0,0,1,.418-1.173,2.728,2.728,0,0,1,1.141-.868,3.908,3.908,0,0,1,1.607-.305,3.217,3.217,0,0,1,2.137.675,2.411,2.411,0,0,1,.819,1.9v3.454a3.931,3.931,0,0,0,.289,1.607v.129Zm-1.9-1.237a2.048,2.048,0,0,0,.964-.257,1.607,1.607,0,0,0,.675-.659V46.509h-.932a2.653,2.653,0,0,0-1.43.321,1.094,1.094,0,0,0-.482.948,1.011,1.011,0,0,0,.321.787A1.3,1.3,0,0,0,108.175,48.87Z" transform="translate(43.888 5.711)" fill="#050000"/>
  <path id="Path_76" data-name="Path 76" d="M111.929,42.455v.884a2.752,2.752,0,0,1,2.233-1.028c1.607,0,2.41.916,2.442,2.731v5.077h-1.735V45.154a1.61,1.61,0,0,0-.305-1.092,1.367,1.367,0,0,0-1.028-.337,1.606,1.606,0,0,0-1.607.932v5.462H110.21V42.455Z" transform="translate(46.898 5.7)" fill="#050000"/>
  <path id="Path_77" data-name="Path 77" d="M123.773,48.654h-3.984l-.835,2.41H117.09l3.888-10.314h1.607l3.9,10.314h-1.864Zm-3.486-1.446h2.988l-1.51-4.274Z" transform="translate(51.073 4.754)" fill="#050000"/>
  <path id="Path_78" data-name="Path 78" d="M127.963,48.013a.8.8,0,0,0-.37-.707,4.27,4.27,0,0,0-1.269-.418,6.568,6.568,0,0,1-1.462-.466,1.946,1.946,0,0,1-1.285-1.815A2.023,2.023,0,0,1,124.412,43a3.34,3.34,0,0,1,2.121-.659,3.443,3.443,0,0,1,2.217.675,2.167,2.167,0,0,1,.852,1.767h-1.719a1.044,1.044,0,0,0-.37-.819,1.393,1.393,0,0,0-.98-.337,1.607,1.607,0,0,0-.932.257.866.866,0,0,0-.353.707.688.688,0,0,0,.337.611,4.544,4.544,0,0,0,1.35.45,6.088,6.088,0,0,1,1.607.53,2.3,2.3,0,0,1,.852.739,1.847,1.847,0,0,1,.289,1.044,2.025,2.025,0,0,1-.868,1.607,3.7,3.7,0,0,1-2.249.643,3.933,3.933,0,0,1-1.607-.353,2.69,2.69,0,0,1-1.157-.932,2.215,2.215,0,0,1-.4-1.285h1.607a1.187,1.187,0,0,0,.466.948,1.831,1.831,0,0,0,1.125.321,1.7,1.7,0,0,0,1.028-.257A.8.8,0,0,0,127.963,48.013Z" transform="translate(54.901 5.717)" fill="#050000"/>
  <path id="Path_79" data-name="Path 79" d="M132.623,48.013a.8.8,0,0,0-.37-.707,4.269,4.269,0,0,0-1.269-.418,6.569,6.569,0,0,1-1.462-.466,1.96,1.96,0,0,1-1.285-1.815A2.023,2.023,0,0,1,129.072,43a3.371,3.371,0,0,1,2.121-.659,3.443,3.443,0,0,1,2.217.675,2.167,2.167,0,0,1,.851,1.767h-1.719a1.044,1.044,0,0,0-.37-.819,1.393,1.393,0,0,0-.98-.337,1.475,1.475,0,0,0-.916.257.849.849,0,0,0-.37.707.692.692,0,0,0,.337.611,4.56,4.56,0,0,0,1.35.45,6.088,6.088,0,0,1,1.607.53,2.176,2.176,0,0,1,.852.739,1.846,1.846,0,0,1,.289,1.044,2.024,2.024,0,0,1-.868,1.607,3.7,3.7,0,0,1-2.249.643,3.985,3.985,0,0,1-1.607-.353,2.637,2.637,0,0,1-1.141-.932,2.115,2.115,0,0,1-.418-1.285h1.607a1.187,1.187,0,0,0,.466.948,1.831,1.831,0,0,0,1.125.321,1.7,1.7,0,0,0,1.028-.257A.8.8,0,0,0,132.623,48.013Z" transform="translate(57.729 5.717)" fill="#050000"/>
  <path id="Path_80" data-name="Path 80" d="M132.89,41.513a.871.871,0,0,1,.257-.659.911.911,0,0,1,.707-.273.932.932,0,0,1,.723.273.952.952,0,0,1,0,1.3.933.933,0,0,1-.723.257.915.915,0,0,1-.707-.257A.866.866,0,0,1,132.89,41.513Zm1.832,9.64h-1.655V43.5h1.607Z" transform="translate(60.659 4.65)" fill="#050000"/>
  <path id="Path_81" data-name="Path 81" d="M139.593,48.013a.785.785,0,0,0-.386-.707,4.016,4.016,0,0,0-1.253-.418,6.568,6.568,0,0,1-1.462-.466,1.946,1.946,0,0,1-1.285-1.815A2.023,2.023,0,0,1,136.042,43a3.311,3.311,0,0,1,2.121-.659,3.443,3.443,0,0,1,2.217.675,2.167,2.167,0,0,1,.851,1.767h-1.719a1.044,1.044,0,0,0-.37-.819,1.428,1.428,0,0,0-.98-.337,1.607,1.607,0,0,0-.932.257.839.839,0,0,0-.353.707.692.692,0,0,0,.337.611,4.368,4.368,0,0,0,1.35.45,6.088,6.088,0,0,1,1.607.53,2.434,2.434,0,0,1,.852.739,1.973,1.973,0,0,1,.273,1.044,2.009,2.009,0,0,1-.852,1.607,3.735,3.735,0,0,1-2.249.643,3.933,3.933,0,0,1-1.607-.353,2.691,2.691,0,0,1-1.157-.932,2.215,2.215,0,0,1-.4-1.285h1.607a1.222,1.222,0,0,0,.45.948,1.866,1.866,0,0,0,1.125.321,1.731,1.731,0,0,0,1.044-.257A.8.8,0,0,0,139.593,48.013Z" transform="translate(61.958 5.717)" fill="#050000"/>
  <path id="Path_82" data-name="Path 82" d="M142.353,41.24V43.1h1.285v1.269h-1.35v4.274a.886.886,0,0,0,.177.643.785.785,0,0,0,.61.193,3.871,3.871,0,0,0,.611,0V50.8a4.213,4.213,0,0,1-1.141.177c-1.317,0-1.976-.739-1.976-2.2V44.437H139.3V43.1h1.269V41.24Z" transform="translate(64.548 5.051)" fill="#050000"/>
  <path id="Path_83" data-name="Path 83" d="M146.385,50.264a3.547,3.547,0,0,1-2.651-1.044,3.693,3.693,0,0,1-1.012-2.731v-.225a4.645,4.645,0,0,1,.45-2.04,3.214,3.214,0,0,1,3.036-1.912,3.009,3.009,0,0,1,2.41,1,4.163,4.163,0,0,1,.852,2.828v.691h-5a2.274,2.274,0,0,0,.627,1.51,1.9,1.9,0,0,0,1.4.546,2.332,2.332,0,0,0,1.928-.964l.932.9a3.215,3.215,0,0,1-1.366,1.028A3.758,3.758,0,0,1,146.385,50.264Zm-.209-6.571a1.433,1.433,0,0,0-1.141.5,2.542,2.542,0,0,0-.562,1.382h3.213v-.129a2.178,2.178,0,0,0-.466-1.317,1.46,1.46,0,0,0-1.109-.434Z" transform="translate(66.622 5.698)" fill="#050000"/>
  <path id="Path_84" data-name="Path 84" d="M147.5,47.395a4.432,4.432,0,0,1,.8-2.812,2.6,2.6,0,0,1,2.2-1.076,2.46,2.46,0,0,1,1.96.852V40.39h1.719V51.283h-1.607l-.08-.8a2.535,2.535,0,0,1-2.056.948,2.654,2.654,0,0,1-2.185-1.092A4.809,4.809,0,0,1,147.5,47.395Zm1.735.145a3.216,3.216,0,0,0,.45,1.815,1.414,1.414,0,0,0,1.269.659,1.608,1.608,0,0,0,1.607-.932V45.869a1.608,1.608,0,0,0-1.607-.916,1.443,1.443,0,0,0-1.285.659A3.521,3.521,0,0,0,149.24,47.539Z" transform="translate(69.52 4.535)" fill="#050000"/>
  <path id="Path_85" data-name="Path 85" d="M158.942,47.1h-1.992v3.968h-1.8V40.754h3.631a4.2,4.2,0,0,1,2.763.8,2.831,2.831,0,0,1,.964,2.313,2.873,2.873,0,0,1-.5,1.735,3.217,3.217,0,0,1-1.4,1.076l2.33,4.29v.1h-1.928Zm-1.992-1.446H158.8a2.056,2.056,0,0,0,1.414-.466,1.845,1.845,0,0,0,.032-2.522,1.894,1.894,0,0,0-1.4-.466h-1.9Z" transform="translate(74.166 4.75)" fill="#050000"/>
  <path id="Path_86" data-name="Path 86" d="M164.181,50.265a3.547,3.547,0,0,1-2.651-1.044,3.642,3.642,0,0,1-1.028-2.731v-.225a4.645,4.645,0,0,1,.45-2.04,3.327,3.327,0,0,1,1.237-1.414,3.214,3.214,0,0,1,1.783-.5,3.033,3.033,0,0,1,2.426,1,4.239,4.239,0,0,1,.852,2.828v.691h-5.013a2.379,2.379,0,0,0,.643,1.51,1.9,1.9,0,0,0,1.4.546,2.331,2.331,0,0,0,1.928-.964l.932.9a3.222,3.222,0,0,1-1.237,1.06A3.791,3.791,0,0,1,164.181,50.265Zm-.209-6.571a1.433,1.433,0,0,0-1.141.5,2.543,2.543,0,0,0-.562,1.382h3.213v-.129a2.18,2.18,0,0,0-.45-1.317,1.458,1.458,0,0,0-1.06-.434Z" transform="translate(77.41 5.698)" fill="#050000"/>
  <path id="Path_87" data-name="Path 87" d="M172.246,46.357a4.624,4.624,0,0,1-.8,2.844,2.6,2.6,0,0,1-2.169,1.06,2.665,2.665,0,0,1-2.024-.835v3.631H165.53v-10.6h1.607v.771a2.812,2.812,0,0,1,4.257.129,4.542,4.542,0,0,1,.8,2.892Zm-1.719-.145a3.214,3.214,0,0,0-.45-1.832,1.512,1.512,0,0,0-1.3-.659,1.609,1.609,0,0,0-1.607.868v3.39a1.607,1.607,0,0,0,1.607.9,1.475,1.475,0,0,0,1.285-.659A3.445,3.445,0,0,0,170.527,46.213Z" transform="translate(80.464 5.701)" fill="#050000"/>
  <path id="Path_88" data-name="Path 88" d="M174.633,44.029a3.31,3.31,0,0,0-.691,0,1.607,1.607,0,0,0-1.607.9v5.254H170.6V42.455h1.607v.852a1.96,1.96,0,0,1,1.735-1,1.616,1.616,0,0,1,.611.1Z" transform="translate(83.545 5.7)" fill="#050000"/>
  <path id="Path_89" data-name="Path 89" d="M173.438,46.215a4.485,4.485,0,0,1,.45-2.04,3.376,3.376,0,0,1,1.253-1.382A3.576,3.576,0,0,1,177,42.311a3.359,3.359,0,0,1,2.506,1,3.886,3.886,0,0,1,1.044,2.651v.4a4.567,4.567,0,0,1-.434,2.024,3.216,3.216,0,0,1-1.253,1.382,3.594,3.594,0,0,1-1.88.5,3.309,3.309,0,0,1-2.587-1.092,4.079,4.079,0,0,1-.98-2.876Zm1.719.145a3.082,3.082,0,0,0,.5,1.848,1.7,1.7,0,0,0,2.386.329,1.778,1.778,0,0,0,.329-.329,3.468,3.468,0,0,0,.482-1.992,3.035,3.035,0,0,0-.5-1.848,1.7,1.7,0,0,0-2.7-.016A3.445,3.445,0,0,0,175.157,46.359Z" transform="translate(85.253 5.699)" fill="#050000"/>
  <path id="Path_90" data-name="Path 90" d="M178.573,47.395a4.435,4.435,0,0,1,.835-2.844,2.6,2.6,0,0,1,2.2-1.076,2.46,2.46,0,0,1,1.96.851V40.39h1.719V51.283h-1.607l-.08-.8a2.535,2.535,0,0,1-2.056.948,2.654,2.654,0,0,1-2.185-1.092A4.812,4.812,0,0,1,178.573,47.395Zm1.735.145a3.217,3.217,0,0,0,.45,1.815,1.414,1.414,0,0,0,1.269.659,1.606,1.606,0,0,0,1.607-.932V45.869a1.608,1.608,0,0,0-1.607-.916,1.443,1.443,0,0,0-1.285.659,3.521,3.521,0,0,0-.434,1.928Z" transform="translate(88.376 4.535)" fill="#050000"/>
  <path id="Path_91" data-name="Path 91" d="M188.528,49.308a2.664,2.664,0,0,1-2.153.9,2.358,2.358,0,0,1-1.88-.739,3.052,3.052,0,0,1-.643-2.1V42.4h1.719v4.932c0,.98.4,1.462,1.2,1.462a1.719,1.719,0,0,0,1.7-.9V42.4H190.2v7.663h-1.607Z" transform="translate(91.579 5.755)" fill="#050000"/>
  <path id="Path_92" data-name="Path 92" d="M192.194,48.883a1.6,1.6,0,0,0,1.076-.37,1.314,1.314,0,0,0,.45-.932h1.607a2.563,2.563,0,0,1-.45,1.333,2.854,2.854,0,0,1-1.141.98,3.307,3.307,0,0,1-1.607.37,3.212,3.212,0,0,1-2.538-1.044,4.065,4.065,0,0,1-.948-2.876v-.177a4.058,4.058,0,0,1,.932-2.812,3.607,3.607,0,0,1,4.788-.257,2.922,2.922,0,0,1,.9,2.1h-1.607a1.553,1.553,0,0,0-2.722-1.022c-.031.034-.061.069-.09.106a3.1,3.1,0,0,0-.466,1.848v.273a3.214,3.214,0,0,0,.45,1.832A1.61,1.61,0,0,0,192.194,48.883Z" transform="translate(94.485 5.698)" fill="#050000"/>
  <path id="Path_93" data-name="Path 93" d="M196.128,41.24V43.1h1.35v1.269h-1.35v4.274a.966.966,0,0,0,.177.643.785.785,0,0,0,.611.193,3.871,3.871,0,0,0,.61,0V50.8a4.213,4.213,0,0,1-1.141.177c-1.317,0-1.976-.739-1.976-2.2V44.437H193.14V43.1h1.269V41.24Z" transform="translate(97.218 5.051)" fill="#050000"/>
  <path id="Path_94" data-name="Path 94" d="M196.62,41.513a.871.871,0,0,1,.257-.659.932.932,0,0,1,.723-.273.981.981,0,0,1,.723.273.938.938,0,0,1,.241.659.913.913,0,0,1-.241.643.981.981,0,0,1-.723.257.933.933,0,0,1-.723-.257A.866.866,0,0,1,196.62,41.513Zm1.832,9.64h-1.719V43.5h1.719Z" transform="translate(99.328 4.65)" fill="#050000"/>
  <path id="Path_95" data-name="Path 95" d="M201.914,47.879l1.607-5.479h1.767l-2.651,7.663h-1.494L198.46,42.4h1.8Z" transform="translate(100.445 5.755)" fill="#050000"/>
  <path id="Path_96" data-name="Path 96" d="M206.875,50.264a3.547,3.547,0,0,1-2.651-1.044,3.693,3.693,0,0,1-1.012-2.731v-.225a4.439,4.439,0,0,1,.45-2.04A3.327,3.327,0,0,1,204.9,42.81a3.214,3.214,0,0,1,1.783-.5,3.054,3.054,0,0,1,2.426,1,4.238,4.238,0,0,1,.852,2.828v.691h-5.013a2.274,2.274,0,0,0,.627,1.51,1.945,1.945,0,0,0,1.414.546,2.332,2.332,0,0,0,1.928-.964l.916.9a3.228,3.228,0,0,1-1.221,1.06A3.816,3.816,0,0,1,206.875,50.264Zm-.193-6.571a1.446,1.446,0,0,0-1.157.5,2.532,2.532,0,0,0-.546,1.382h3.213v-.129a2.09,2.09,0,0,0-.466-1.317,1.432,1.432,0,0,0-1.044-.434Z" transform="translate(103.324 5.698)" fill="#050000"/>
  <path id="Path_97" data-name="Path 97" d="M86.87,52.726H83.657v8.868H81.873V52.726H78.66V51.28h8.178Z" transform="translate(27.755 11.144)" fill="#050000"/>
  <path id="Path_98" data-name="Path 98" d="M88.237,54.56a4.959,4.959,0,0,0-.691,0,1.607,1.607,0,0,0-1.607.9v5.189H84.22V52.985h1.607v.868a1.943,1.943,0,0,1,1.735-1.012,1.376,1.376,0,0,1,.611.112Z" transform="translate(31.128 12.09)" fill="#050000"/>
  <path id="Path_99" data-name="Path 99" d="M90.885,60.813a3.535,3.535,0,0,1-2.651-1.028,3.759,3.759,0,0,1-1.012-2.747v-.209a4.706,4.706,0,0,1,.434-2.1,3.407,3.407,0,0,1,1.253-1.4,3.2,3.2,0,0,1,1.783-.514,2.956,2.956,0,0,1,2.41,1.012,4.148,4.148,0,0,1,.852,2.812v.707h-5a2.287,2.287,0,0,0,.627,1.494,1.891,1.891,0,0,0,1.4.562,2.332,2.332,0,0,0,1.928-.964l.932.884A3.106,3.106,0,0,1,92.6,60.4,3.919,3.919,0,0,1,90.885,60.813Zm-.209-6.571a1.479,1.479,0,0,0-1.141.5,2.584,2.584,0,0,0-.562,1.382h3.213v-.129a2.087,2.087,0,0,0-.466-1.3A1.482,1.482,0,0,0,90.676,54.242Z" transform="translate(32.947 12.07)" fill="#050000"/>
  <path id="Path_100" data-name="Path 100" d="M96.927,60.644a2.711,2.711,0,0,1-.209-.707,2.893,2.893,0,0,1-3.888.193,2.116,2.116,0,0,1-.739-1.607,2.169,2.169,0,0,1,.916-1.88,4.333,4.333,0,0,1,2.6-.659h1.06v-.5a1.351,1.351,0,0,0-.337-.964,1.32,1.32,0,0,0-1.012-.353,1.6,1.6,0,0,0-.964.289.9.9,0,0,0-.37.755H92.268a1.882,1.882,0,0,1,.418-1.189,2.786,2.786,0,0,1,1.125-.852,4,4,0,0,1,1.607-.321,3.211,3.211,0,0,1,2.153.675,2.474,2.474,0,0,1,.8,1.9v3.454a3.958,3.958,0,0,0,.289,1.607V60.6Zm-1.9-1.237A2.041,2.041,0,0,0,96,59.166a1.813,1.813,0,0,0,.675-.675V57.045h-.932a2.518,2.518,0,0,0-1.446.337,1.11,1.11,0,0,0-.466.948.98.98,0,0,0,.321.787A1.3,1.3,0,0,0,95.031,59.407Z" transform="translate(35.903 12.094)" fill="#050000"/>
  <path id="Path_101" data-name="Path 101" d="M99.592,51.77v1.864h1.366v1.285H99.592v4.274a.94.94,0,0,0,.177.627.8.8,0,0,0,.627.209,2.453,2.453,0,0,0,.594,0v1.333a4.032,4.032,0,0,1-1.125.161c-1.333,0-1.992-.723-1.992-2.185V55H96.62V53.714h1.253V51.77Z" transform="translate(38.652 11.441)" fill="#050000"/>
  <path id="Path_102" data-name="Path 102" d="M101.741,52.988v.8a2.8,2.8,0,0,1,2.217-.948,2.12,2.12,0,0,1,2.1,1.189,2.714,2.714,0,0,1,2.346-1.189,2.406,2.406,0,0,1,1.9.707,3.1,3.1,0,0,1,.627,2.073v5.029h-1.719v-4.98a1.609,1.609,0,0,0-.321-1.076,1.378,1.378,0,0,0-1.044-.337,1.429,1.429,0,0,0-.964.321,1.7,1.7,0,0,0-.53.819v5.254h-1.623V55.607a1.237,1.237,0,0,0-1.11-1.353,1.181,1.181,0,0,0-.272,0,1.608,1.608,0,0,0-1.478.852v5.543H100.15V52.988Z" transform="translate(40.794 12.087)" fill="#050000"/>
  <path id="Path_103" data-name="Path 103" d="M111.475,60.794a3.535,3.535,0,0,1-2.651-1.028,3.759,3.759,0,0,1-1.012-2.747V56.81a4.7,4.7,0,0,1,.434-2.056,3.529,3.529,0,0,1,1.253-1.4,3.2,3.2,0,0,1,1.783-.514,3.021,3.021,0,0,1,2.426,1.012,4.23,4.23,0,0,1,.851,2.812v.707h-5.013a2.287,2.287,0,0,0,.627,1.494,1.945,1.945,0,0,0,1.414.562,2.282,2.282,0,0,0,1.912-.964l.932.884a3.051,3.051,0,0,1-1.221,1.076A4.042,4.042,0,0,1,111.475,60.794Zm-.145-6.571a1.5,1.5,0,0,0-1.157.5,2.587,2.587,0,0,0-.546,1.382h3.213v-.129a2.013,2.013,0,0,0-.466-1.3A1.464,1.464,0,0,0,111.33,54.223Z" transform="translate(45.44 12.088)" fill="#050000"/>
  <path id="Path_104" data-name="Path 104" d="M114.461,52.985v.884a2.816,2.816,0,0,1,2.233-1.028c1.607,0,2.41.916,2.442,2.747v5.061h-1.671V55.684a1.609,1.609,0,0,0-.321-1.076,1.287,1.287,0,0,0-1.028-.353,1.686,1.686,0,0,0-1.607.948v5.446H112.79V52.985Z" transform="translate(48.463 12.09)" fill="#050000"/>
  <path id="Path_105" data-name="Path 105" d="M120.322,51.77v1.864h1.366v1.285h-1.366v4.274a.94.94,0,0,0,.177.627.8.8,0,0,0,.627.209,2.453,2.453,0,0,0,.594,0v1.333a4.032,4.032,0,0,1-1.125.161c-1.333,0-1.992-.723-1.992-2.185V55H117.35V53.714H118.6V51.77Z" transform="translate(51.23 11.441)" fill="#050000"/>
  <path id="Path_106" data-name="Path 106" d="M129.34,59.2h-4l-.835,2.394H122.64l3.9-10.314h1.607l3.9,10.314h-1.88Zm-3.486-1.446h2.988l-1.494-4.274Z" transform="translate(54.44 11.144)" fill="#050000"/>
  <path id="Path_107" data-name="Path 107" d="M133.768,59.854a2.65,2.65,0,0,1-2.153.884,2.4,2.4,0,0,1-1.88-.723,3.1,3.1,0,0,1-.643-2.121V52.93h1.719v4.932c0,.98.4,1.462,1.221,1.462a1.7,1.7,0,0,0,1.687-.9V52.93h1.655v7.663h-1.607Z" transform="translate(58.351 12.145)" fill="#050000"/>
  <path id="Path_108" data-name="Path 108" d="M136.568,51.77v1.864h1.35v1.285h-1.35v4.274a.951.951,0,0,0,.161.627.838.838,0,0,0,.627.209,2.453,2.453,0,0,0,.594,0v1.333a4.032,4.032,0,0,1-1.125.161c-1.317,0-1.992-.723-1.992-2.185V55H133.58V53.714h1.253V51.77Z" transform="translate(61.078 11.441)" fill="#050000"/>
  <path id="Path_109" data-name="Path 109" d="M138.793,54.979A2.714,2.714,0,0,1,140.93,54c1.607,0,2.458.932,2.49,2.812v5h-1.655V56.874a1.508,1.508,0,0,0-.337-1.125,1.378,1.378,0,0,0-1.012-.337,1.608,1.608,0,0,0-1.607.916v5.479H137.09V50.93h1.719Z" transform="translate(63.208 10.931)" fill="#050000"/>
  <path id="Path_110" data-name="Path 110" d="M141.912,56.745a4.418,4.418,0,0,1,.45-2.024,3.216,3.216,0,0,1,1.253-1.382,3.39,3.39,0,0,1,1.848-.5,3.314,3.314,0,0,1,2.522,1.012,3.892,3.892,0,0,1,1.044,2.635v.418a4.566,4.566,0,0,1-.434,2.024,3.327,3.327,0,0,1-1.237,1.382,3.637,3.637,0,0,1-1.88.482,3.345,3.345,0,0,1-2.6-1.076,4.18,4.18,0,0,1-.964-2.876Zm1.719.161a3.115,3.115,0,0,0,.482,1.848,1.7,1.7,0,0,0,2.731,0,3.4,3.4,0,0,0,.482-1.992,3.1,3.1,0,0,0-.5-1.832,1.675,1.675,0,0,0-2.7-.016,3.307,3.307,0,0,0-.466,1.992Z" transform="translate(66.13 12.089)" fill="#050000"/>
  <path id="Path_111" data-name="Path 111" d="M151.273,54.56a5.19,5.19,0,0,0-.707,0,1.607,1.607,0,0,0-1.607.9v5.189H147.24V52.985h1.607v.868a1.945,1.945,0,0,1,1.719-1.012,1.329,1.329,0,0,1,.611.112Z" transform="translate(69.366 12.089)" fill="#050000"/>
  <path id="Path_112" data-name="Path 112" d="M150.43,52.037a.945.945,0,0,1,.241-.659.981.981,0,0,1,.723-.257.933.933,0,0,1,.723.257.919.919,0,0,1-.723,1.574,1.037,1.037,0,0,1-.723-.257A.945.945,0,0,1,150.43,52.037Zm1.832,9.64h-1.735V54.029h1.735Z" transform="translate(71.301 11.045)" fill="#050000"/>
  <path id="Path_113" data-name="Path 113" d="M155.192,51.77v1.864h1.366v1.285h-1.366v4.274a.94.94,0,0,0,.177.627.8.8,0,0,0,.627.209,2.453,2.453,0,0,0,.594,0v1.333a4.032,4.032,0,0,1-1.125.161c-1.333,0-1.992-.723-1.992-2.185V55H152.22V53.714h1.253V51.77Z" transform="translate(72.388 11.441)" fill="#050000"/>
  <path id="Path_114" data-name="Path 114" d="M158.692,58.141l1.607-5.205h1.848l-3.053,8.836a2.474,2.474,0,0,1-2.378,1.928,3.269,3.269,0,0,1-.835-.129V62.238h.321a1.333,1.333,0,0,0,1.51-1.028l.241-.659L155.27,52.92h1.848Z" transform="translate(74.238 12.139)" fill="#050000"/>
  <g id="FINAL_REG" data-name="FINAL REG">
    <path id="Path_115" data-name="Path 115" d="M39.774,17.25a47.375,47.375,0,0,0-1.012-4.82,40.331,40.331,0,0,0-7.808,1.607c2.7,9.318,1.783,17.673-3.294,22.782l5.366,5.446C39,36.417,41.38,27.516,39.774,17.25Z" transform="translate(-3.191 -12.43)" fill="#0180ff"/>
    <path id="Path_116" data-name="Path 116" d="M65.239,15.092c-4.675,8.483-11.246,13.769-18.428,13.753S33.075,23.559,28.4,15.06a40.363,40.363,0,0,0-6.7,4.354,48.609,48.609,0,0,0,2.667,4.113c6.121,8.386,14.09,13.013,22.492,13.03s16.323-4.627,22.492-13.013a43.875,43.875,0,0,0,2.635-4.113A39.521,39.521,0,0,0,65.239,15.092Z" transform="translate(-6.807 -10.835)" fill="#0101e6"/>
    <path id="Path_117" data-name="Path 117" d="M74.517,40.162c-9.318,2.7-17.673,1.783-22.782-3.294S45.775,23.4,48.522,14.087a40.331,40.331,0,0,0-7.808-1.607,48.326,48.326,0,0,0-1.028,4.82c-1.607,10.266.755,19.183,6.651,25.079s14.813,8.29,25.079,6.683a47.372,47.372,0,0,0,4.82-1.012A39.188,39.188,0,0,0,74.517,40.162Z" transform="translate(3.805 -12.4)" fill="#0180ff"/>
    <path id="Path_118" data-name="Path 118" d="M67.7,28.4a41.18,41.18,0,0,0-4.338-6.7,44.19,44.19,0,0,0-4.113,2.667c-8.4,6.122-13.03,14.092-13.03,22.5s4.611,16.325,13,22.5a46.261,46.261,0,0,0,4.113,2.635,41.27,41.27,0,0,0,4.354-6.7C59.185,60.569,53.9,54,53.9,46.815S59.2,33.076,67.7,28.4Z" transform="translate(8.067 -6.807)" fill="#0101e6"/>
    <path id="Path_119" data-name="Path 119" d="M71.4,39.656c-10.266-1.607-19.167.755-25.079,6.651s-8.29,14.813-6.683,25.079a47.375,47.375,0,0,0,1.012,4.82A39.121,39.121,0,0,0,48.455,74.6c-2.683-9.318-1.783-17.673,3.294-22.782S65.212,45.857,74.53,48.6A40.332,40.332,0,0,0,76.137,40.8,48.43,48.43,0,0,0,71.4,39.656Z" transform="translate(3.776 3.794)" fill="#0180ff"/>
    <path id="Path_120" data-name="Path 120" d="M69.282,59.25c-6.121-8.4-14.09-13.03-22.492-13.03s-16.323,4.611-22.492,13A44.194,44.194,0,0,0,21.63,63.33a41.264,41.264,0,0,0,6.7,4.354C33,59.185,39.576,53.9,46.757,53.916S60.494,59.2,65.169,67.7a41.191,41.191,0,0,0,6.86-4.338A44.344,44.344,0,0,0,69.282,59.25Z" transform="translate(-6.849 8.074)" fill="#0101e6"/>
    <path id="Path_121" data-name="Path 121" d="M17.25,39.638a47.373,47.373,0,0,0-4.82,1.012,40.33,40.33,0,0,0,1.607,7.808c9.318-2.683,17.673-1.783,22.782,3.294s5.977,13.463,3.213,22.782A40.572,40.572,0,0,0,47.84,76.14a48.325,48.325,0,0,0,1.028-4.82c1.607-10.266-.755-19.167-6.651-25.079S27.516,38.032,17.25,39.638Z" transform="translate(-12.43 3.779)" fill="#0180ff"/>
    <path id="Path_122" data-name="Path 122" d="M23.543,24.347A44.19,44.19,0,0,0,19.43,21.68a40.18,40.18,0,0,0-4.338,6.7c8.483,4.676,13.769,11.248,13.753,18.43S23.559,60.549,15.06,65.225a40.241,40.241,0,0,0,4.354,6.781,48.607,48.607,0,0,0,4.113-2.667c8.386-6.122,13.013-14.092,13.03-22.5S31.929,30.485,23.543,24.347Z" transform="translate(-10.835 -6.819)" fill="#0101e6"/>
    <path id="Path_123" data-name="Path 123" d="M36.868,27.68c-5.093,5.077-13.463,5.977-22.782,3.213A40.572,40.572,0,0,0,12.48,38.7,44.028,44.028,0,0,0,17.3,39.73c10.266,1.607,19.183-.755,25.079-6.651l.353-.353-5.8-5.125Z" transform="translate(-12.4 -3.225)" fill="#0180ff"/>
  </g>
</svg>
